<!DOCTYPE svg PUBLIC "-//W3C//DTD SVG 1.1//EN" "http://www.w3.org/Graphics/SVG/1.1/DTD/svg11.dtd">
<!-- Uploaded to: SVG Repo, www.svgrepo.com, Transformed by: SVG Repo Mixer Tools -->
<svg version="1.1" id="Layer_1" xmlns="http://www.w3.org/2000/svg" xmlns:xlink="http://www.w3.org/1999/xlink" viewBox="-76.8 -76.8 665.60 665.60" xml:space="preserve" width="64px" height="64px" fill="#000000" transform="matrix(-1, 0, 0, 1, 0, 0)" stroke="#000000" stroke-width="4.096">
<g id="SVGRepo_bgCarrier" stroke-width="0"/>
<g id="SVGRepo_tracerCarrier" stroke-linecap="round" stroke-linejoin="round"/>
<g id="SVGRepo_iconCarrier"> <path style="fill:#FEF0D9;" d="M357.037,433.43v-58.418h153.016v58.418c0,42.249-38.543,77.596-80.801,77.596h-0.289 C386.714,511.026,357.037,475.68,357.037,433.43z"/> <rect x="357.037" y="247.499" style="fill:#91deb6;" width="153.016" height="127.513"/> <rect x="357.037" y="128.487" style="fill:#b8e9ce;" width="153.016" height="119.012"/> <rect x="357.037" y="0.973" style="fill:#d8f3e4;" width="153.016" height="127.513"/> <path style="fill:#FEF0D9;" d="M380.236,476.657l-39.385-39.385l108.199-108.199l39.385,39.385 c29.881,29.881,32.125,81.464,2.244,111.345l-0.204,0.204C460.595,509.887,410.117,506.538,380.236,476.657z"/> <rect x="273.396" y="274.34" transform="matrix(-0.7071 0.7071 -0.7071 -0.7071 836.3925 329.7466)" style="fill:#FCB641;" width="153.015" height="127.512"/> <rect x="177.7" y="170.91" transform="matrix(-0.7071 0.7071 -0.7071 -0.7071 605.3862 234.1116)" style="fill:#FDC567;" width="153.015" height="143.052"/> <rect x="73.024" y="61.24" transform="matrix(-0.7071 0.7071 -0.7071 -0.7071 352.6684 129.4139)" style="fill:#FDD38D;" width="153.015" height="153.015"/> <path style="fill:#FEF0D9;" d="M433.545,511.026h-59.506V358.01h59.506c42.258,0,76.508,34.25,76.508,76.508l0,0 C510.053,476.776,475.803,511.026,433.545,511.026z"/> <rect x="246.526" y="358.01" style="fill:#99e6fc;" width="127.513" height="153.016"/> <rect x="127.513" y="358.01" style="fill:#c9effd;" width="119.012" height="153.016"/> <rect y="358.01" style="fill:#def6fc;" width="127.513" height="153.016"/> <circle style="fill:#99e6fc;" cx="442.046" cy="434.518" r="25.902"/> </g>
</svg>